<svg height="230.350221" viewBox="0 0 25.929166 13.758333" width="434.121571" xmlns="http://www.w3.org/2000/svg"><g fill-rule="evenodd" transform="matrix(.26458333 0 0 .26458333 .13229 .132292)"><path d="m47.191241 12.460524v8.317254h2.617838v-8.317254l7.882002 4.15848 1.308919-2.071634-7.882323-4.158481 7.882323-4.1587734-1.308919-2.0716348-7.882002 4.1587733v-8.3172541h-2.617838v8.3172541l-7.882322-4.1587733-1.308919 2.0716348 7.882323 4.1587734-7.882323 4.158481 1.308919 2.071634z"/><path d="m33 51h2.603586v-6.275968h6.396414v-2.224032h-9z"/><path d="m18 51h2.603586v-6.275968h6.396414v-2.224032h-9z"/><path d="m49 51v-8.5h-3v8.5z"/><path d="m88 51h.499742 2.144893 6.355365v-2.224309h-6.355365v-6.275691h-2.644635z"/><path d="m62.527666 51 5.472334-8.5h-3.046677l-3.953323 6.140414-3.953323-6.140414h-3.046677l5.472334 8.5h.008655 3.038331z"/><path d="m83 51-5.472213-8.5h-.008655-3.038264-.008346l-5.472522 8.5h3.046919l3.953236-6.140691 3.953235 6.140691z"/><path d="m14 51-5.4725221-8.5h-.0083461-3.0382636-.0086552l-5.472213 8.5h3.0466097l3.9532357-6.140691 3.9535446 6.140691z"/></g></svg>