<?xml version="1.0" encoding="UTF-8" standalone="no"?>
<svg
   xmlns:dc="http://purl.org/dc/elements/1.1/"
   xmlns:cc="http://creativecommons.org/ns#"
   xmlns:rdf="http://www.w3.org/1999/02/22-rdf-syntax-ns#"
   xmlns:svg="http://www.w3.org/2000/svg"
   xmlns="http://www.w3.org/2000/svg"
   viewBox="0 0 95.973335 61.16"
   height="61.16"
   width="95.973335"
   xml:space="preserve"
   id="svg2"
   version="1.1"><metadata
     id="metadata8"><rdf:RDF><cc:Work
         rdf:about=""><dc:format>image/svg+xml</dc:format><dc:type
           rdf:resource="http://purl.org/dc/dcmitype/StillImage" /></cc:Work></rdf:RDF></metadata><defs
     id="defs6" /><g
     transform="matrix(1.3333333,0,0,-1.3333333,0,61.16)"
     id="g10"><g
       transform="scale(0.1)"
       id="g12"><path
         id="path14"
         style="fill:#c4122e;fill-opacity:1;fill-rule:nonzero;stroke:none"
         d="m 560.742,339.082 v 70.461 h -32.609 v -4.973 h 9.121 v -65.488 h -11.746 v -4.668 h 46.98 v 4.668 h -11.746" /><path
         id="path16"
         style="fill:#c4122e;fill-opacity:1;fill-rule:nonzero;stroke:none"
         d="m 96.9805,455.039 h -4.2461 c -0.168,-3.621 -2.0703,-5.176 -5.6836,-5.176 -7.2578,0 -17.8516,8.801 -30.2735,8.801 -35.3828,0 -56.7694875,-34.855 -56.7694875,-65.578 0,-30.887 20.3515875,-61.426 54.5234875,-61.426 20.7109,0 28.4765,9.836 33.9921,9.836 3.625,0 4.2969,-3.195 4.2969,-7.082 H 97.5 v 42.285 h -4.6797 l -1.0351,-5.867 C 89.375,356.855 78.5156,336.203 56.2578,336.203 c -19.6758,0 -27.2656,17.02 -27.2656,58.953 0,44.004 10.3516,58.809 27.7851,58.809 19.668,0 33.2032,-22.051 35.9571,-39.649 h 4.2461 v 40.723" /><path
         id="path18"
         style="fill:#c4122e;fill-opacity:1;fill-rule:nonzero;stroke:none"
         d="m 188.555,349.055 c 0,-4.426 -2.91,-9.532 -4.836,-9.532 -3.067,0 -3.77,3.231 -3.77,8.504 v 39.153 c 0,19.402 -18.211,24.168 -35.73,24.168 -17.024,0 -29.453,-8.34 -29.453,-17.871 0,-5.957 3.406,-11.063 11.074,-11.063 6.465,0 10.371,4.258 10.371,10.203 0,8.664 -8.984,8.77 -8.984,8.977 0,3.855 10.007,5.105 15.8,5.105 12.754,0 14.461,-4.715 14.461,-14.929 v -14.29 l -16.679,-1.355 c -15.489,-1.191 -32.344,-5.285 -32.344,-22.98 0,-14.817 13.281,-20.774 26.387,-20.774 6.64,0 18.39,2.551 22.804,10.727 3.067,-7.149 9.364,-10.727 17.032,-10.727 11.054,0 18.203,6.645 18.203,16.684 z m -31.067,5.613 c -0.34,-9.023 -5.437,-16.414 -13.445,-16.414 -11.574,0 -12.082,9.766 -12.082,17.234 0,9.024 1.016,14.981 12.082,16.164 l 13.445,1.368 v -18.352" /><path
         id="path20"
         style="fill:#c4122e;fill-opacity:1;fill-rule:nonzero;stroke:none"
         d="m 578.984,46.4961 v 70.4689 h -35.226 v -4.973 h 11.738 V 46.4961 h -11.738 v -4.6602 h 46.972 v 4.6602 h -11.746" /><path
         id="path22"
         style="fill:#c4122e;fill-opacity:1;fill-rule:nonzero;stroke:none"
         d="m 137.137,301.398 0.109,4.813 H 98.3398 L 70.1445,225.539 42.7031,306.32 H 0 v -4.922 H 11.5234 V 204.199 C 11.5234,196.887 9.71484,191.211 0,191.211 v -4.707 h 29.4336 v 4.707 h -0.5195 c -9.1875,0 -12.7618,0.734 -12.7618,14.523 v 96.504 h 0.3399 L 57.168,186.504 h 4.5976 l 39.6484,113.691 h 0.344 V 191.211 H 90.4102 v -4.707 h 46.7268 v 4.707 h -11.133 v 110.187 h 11.133" /><path
         id="path24"
         style="fill:#c4122e;fill-opacity:1;fill-rule:nonzero;stroke:none"
         d="m 164.336,227.688 h 46.98 c -0.175,18.378 -17.195,36.082 -35.066,35.742 -20.078,0 -37.441,-17.364 -37.441,-40.332 0,-22.129 16.171,-38.633 37.957,-38.633 20.929,0 31.32,12.93 35.058,29.773 h -4.636 c -3.743,-15.828 -12.043,-24.812 -25.325,-24.812 -15.82,0 -17.527,12.39 -17.527,23.965 z m 0,4.628 v 11.434 c 0,11.398 4.941,14.973 10.723,14.973 8.171,0 10.722,-5.618 10.722,-14.973 v -11.434 h -21.445" /><path
         id="path26"
         style="fill:#c4122e;fill-opacity:1;fill-rule:nonzero;stroke:none"
         d="m 359.863,83.0391 h 46.981 c -0.176,18.3789 -17.196,36.0819 -35.067,35.7419 -20.078,0 -37.441,-17.363 -37.441,-40.3318 0,-22.1289 16.172,-38.6328 37.957,-38.6328 20.93,0 31.32,12.9297 35.059,29.7734 h -4.637 c -3.742,-15.8281 -12.043,-24.8125 -25.324,-24.8125 -15.821,0 -17.528,12.3907 -17.528,23.9649 z m 0,4.6289 v 11.4336 c 0,11.3944 4.942,14.9724 10.723,14.9724 8.172,0 10.723,-5.617 10.723,-14.9724 V 87.668 h -21.446" /><path
         id="path28"
         style="fill:#c4122e;fill-opacity:1;fill-rule:nonzero;stroke:none"
         d="m 211.609,306.047 v -4.317 h 11.739 V 191.32 h -11.739 v -4.816 h 46.973 v 4.816 h -11.746 v 114.727 h -35.227" /><path
         id="path30"
         style="fill:#c4122e;fill-opacity:1;fill-rule:nonzero;stroke:none"
         d="m 261.863,306.047 v -4.317 h 11.75 V 191.32 h -11.75 v -4.816 h 46.973 v 4.816 H 297.09 v 114.727 h -35.227" /><path
         id="path32"
         style="fill:#c4122e;fill-opacity:1;fill-rule:nonzero;stroke:none"
         d="m 389.395,223.945 c 0,23.313 -18.047,39.485 -40.508,39.485 -22.473,0 -40.508,-16.172 -40.508,-39.485 0,-23.32 18.035,-39.48 40.508,-39.48 22.461,0 40.508,16.16 40.508,39.48 M 362.84,207.121 c 0,-12.766 -5.281,-18.047 -13.953,-18.047 -8.684,0 -13.957,5.281 -13.957,18.047 v 33.496 c 0,12.762 5.273,18.035 13.957,18.035 8.672,0 13.953,-5.273 13.953,-18.035 v -33.496" /><path
         id="path34"
         style="fill:#c4122e;fill-opacity:1;fill-rule:nonzero;stroke:none"
         d="M 0,157.227 H 11.9023 V 81.6211 c 0,-26.3867 18.2032,-42.3828 45.9493,-42.3828 31.3164,0 44.9294,16.5156 44.9294,41.5351 V 145.41 c 0,9.863 2.727,11.817 8.86,11.817 h 3.437 v 4.562 H 85.1445 v -4.562 h 2.1485 c 8.6836,0 9.8828,-2.625 9.8828,-12.489 V 79.0742 c 0,-23.1562 -14.3633,-33.7031 -28.9453,-33.7031 -24.8438,0 -29.7852,16.6797 -31.2578,38.4687 v 73.3872 h 11.1601 v 4.562 H 0 v -4.562" /><path
         id="path36"
         style="fill:#c4122e;fill-opacity:1;fill-rule:nonzero;stroke:none"
         d="m 294.883,39.9336 h 4.59 l 25.195,59.5586 c 5.086,11.1248 7.82,12.5308 11.738,12.7068 h 1.532 v 4.656 h -26.551 v -4.707 h 3.23 c 4.942,0 7.199,0.313 7.199,-4.101 0,-2.734 -0.859,-5.418 -2.89,-10.3439 L 307.363,70.4688 288.836,112.148 h 9.445 v 4.707 h -42.715 v -4.707 h 7.997 l 31.32,-72.2144" /><path
         id="path38"
         style="fill:#c4122e;fill-opacity:1;fill-rule:nonzero;stroke:none"
         d="m 484.512,39.9336 h 4.043 c 0.847,2.7148 2.597,4.0703 5.996,4.0703 4.422,0 9.707,-4.0703 19.238,-4.0703 16.172,0 27.227,13.9453 27.227,27.8984 0,20.7735 -14.297,22.3047 -32.5,24.8555 -9.543,1.3672 -14.934,2.7227 -14.934,10.2145 0,8.008 6.984,11.344 16.172,11.344 12.766,0 17.707,-8.453 21.965,-19.5194 h 4.023 v 24.1714 h -3.859 c 0,-2.043 -1.758,-3.742 -4.988,-3.742 -5.45,0 -9.875,3.742 -17.707,3.742 -17.02,0 -25.36,-14.472 -25.36,-25.3628 0,-21.9532 16.68,-23.8282 29.617,-25.3594 12.258,-1.5352 16.68,-2.3164 16.68,-10.1485 0,-9.0117 -7.488,-13.1132 -16.68,-13.1132 -12.937,0 -21.836,11.1718 -24.89,23.6015 h -4.043 v -28.582" /><path
         id="path40"
         style="fill:#c4122e;fill-opacity:1;fill-rule:nonzero;stroke:none"
         d="m 249.336,46.4961 v 70.4689 h -35.227 v -4.973 h 11.739 V 46.4961 h -11.739 v -4.6602 h 46.973 v 4.6602 h -11.746" /><path
         id="path42"
         style="fill:#c4122e;fill-opacity:1;fill-rule:nonzero;stroke:none"
         d="m 225.879,140.449 c 0,-6.511 5.203,-11.726 11.719,-11.726 6.523,0 11.726,5.215 11.726,11.726 0,6.516 -5.203,11.731 -11.726,11.731 -6.516,0 -11.719,-5.215 -11.719,-11.731" /><path
         id="path44"
         style="fill:#c4122e;fill-opacity:1;fill-rule:nonzero;stroke:none"
         d="m 555.469,140.449 c 0,-6.511 5.203,-11.726 11.719,-11.726 6.523,0 11.726,5.215 11.726,11.726 0,6.516 -5.203,11.731 -11.726,11.731 -6.516,0 -11.719,-5.215 -11.719,-11.731" /><path
         id="path46"
         style="fill:#c4122e;fill-opacity:1;fill-rule:nonzero;stroke:none"
         d="m 393.348,375.617 h 46.972 c -0.164,18.387 -17.187,36.082 -35.058,35.742 -20.078,0 -37.442,-17.355 -37.442,-40.332 0,-22.129 16.164,-38.632 37.95,-38.632 20.937,0 31.32,12.929 35.058,29.773 h -4.637 c -3.73,-15.82 -12.043,-24.813 -25.312,-24.813 -15.82,0 -17.531,12.391 -17.531,23.965 z m 0,4.629 v 11.434 c 0,11.398 4.933,14.972 10.722,14.972 8.176,0 10.723,-5.617 10.723,-14.972 v -11.434 h -21.445" /><path
         id="path48"
         style="fill:#c4122e;fill-opacity:1;fill-rule:nonzero;stroke:none"
         d="m 598.828,375.617 h 46.981 c -0.176,18.387 -17.196,36.082 -35.067,35.742 -20.078,0 -37.441,-17.355 -37.441,-40.332 0,-22.129 16.172,-38.632 37.957,-38.632 20.93,0 31.32,12.929 35.058,29.773 h -4.636 c -3.742,-15.82 -12.043,-24.813 -25.325,-24.813 -15.82,0 -17.527,12.391 -17.527,23.965 z m 0,4.629 v 11.434 c 0,11.398 4.942,14.972 10.723,14.972 6.101,0 10.722,-3.527 10.722,-14.972 v -11.434 h -21.445" /><path
         id="path50"
         style="fill:#c4122e;fill-opacity:1;fill-rule:nonzero;stroke:none"
         d="m 199.043,46.4453 v 45.957 c 0,18.3787 -7.832,26.9647 -23.996,26.9647 -11.414,0 -22.977,-6.543 -27.578,-16.418 v 0 13.789 h -35.235 v -4.59 h 11.739 V 46.4453 h -11.739 v -4.5898 h 45.274 v 4.5898 h -10.039 v 44.9141 c 1.465,6.3164 9.465,20.8986 18.769,20.8986 6.184,0 9.317,-2.129 9.317,-13.5549 V 46.4453 h -9.707 v -4.5898 h 44.933 v 4.5898 h -11.738" /><path
         id="path52"
         style="fill:#c4122e;fill-opacity:1;fill-rule:nonzero;stroke:none"
         d="m 476.133,191.094 v 45.957 c 0,18.379 -7.824,26.965 -23.985,26.965 -11.418,0 -22.98,-6.543 -27.578,-16.418 v 0 13.789 h -35.234 v -4.59 h 11.738 v -65.703 h -11.738 v -4.59 h 45.273 v 4.59 H 424.57 v 44.914 c 1.453,6.316 9.461,20.898 18.758,20.898 6.192,0 9.328,-2.129 9.328,-13.554 v -52.258 h -9.707 v -4.59 h 44.93 v 4.59 h -11.746" /><path
         id="path54"
         style="fill:#c4122e;fill-opacity:1;fill-rule:nonzero;stroke:none"
         d="m 355.887,339.035 v 45.945 c 0,18.379 -7.832,26.965 -23.992,26.965 -11.418,0 -22.969,-6.543 -27.571,-16.418 h -0.008 v 13.789 H 269.09 v -4.589 h 11.738 V 339.035 H 269.09 v -4.601 h 45.273 v 4.601 h -10.047 v 44.903 c 1.465,6.316 9.473,20.898 18.77,20.898 6.18,0 9.316,-2.129 9.316,-13.555 v -52.246 h -9.707 v -4.601 h 44.93 v 4.601 h -11.738" /><path
         id="path56"
         style="fill:#c4122e;fill-opacity:1;fill-rule:nonzero;stroke:none"
         d="m 537.332,432.813 c 0,-6.512 5.207,-11.727 11.719,-11.727 6.523,0 11.73,5.215 11.73,11.727 0,6.515 -5.207,11.73 -11.73,11.73 -6.512,0 -11.719,-5.215 -11.719,-11.73" /><path
         id="path58"
         style="fill:#c4122e;fill-opacity:1;fill-rule:nonzero;stroke:none"
         d="m 693.223,116.934 v -4.942 c 7.254,0.031 10.429,-0.664 10.429,-3.945 0,-2.734 -0.859,-5.418 -2.89,-10.3439 L 689.199,70.4688 670.742,111.984 h 9.668 v 4.95 h -58.664 v 36.515 h -3.074 c 0,-18.039 -12.246,-36.594 -29.445,-36.594 v -4.871 h 9.035 V 59.3281 c 0,-16.1718 13.945,-19.3945 18.711,-19.3945 10.379,0 17.363,4.2383 22.636,13.0937 l -3.644,2.004 c -2.039,-3.0586 -4.766,-7.1407 -9.024,-7.1407 -3.398,0 -5.195,2.4141 -5.195,8.0274 v 56.066 h 23.723 L 676.57,40.2734 665.809,14.9141 665.781,14.8555 c 0,0 0,-0.0117 -0.011,-0.0117 l 0.011,0.0117 c -0.234,-0.4805 -0.722,-0.8203 -1.301,-0.8203 -0.625,0 -1.121,0.3984 -1.328,0.957 0,0.0195 -0.007,0.0469 -0.007,0.0664 -1.387,4.9336 -5.84,8.5273 -11.243,8.5273 -6.511,0 -11.718,-5.2148 -11.718,-11.7304 0,-4.57816 2.609,-8.47659 6.398,-10.41019 0,0 -0.031,0 -0.051,0 0.117,-0.05859 0.246,-0.10547 0.371,-0.16406 0.227,-0.10937 0.45,-0.21484 0.684,-0.3125 1.32,-0.539062 2.746,-0.8710937 4.269,-0.8984375 9.872,-0.8320315 14.93,6.4531275 18.418,13.8827875 0.79,1.6914 1.504,3.3828 2.168,4.9922 1.493,3.6055 4.11,9.7852 7.176,17.0235 v 0 l 2.961,6.9218 -0.012,0.0117 23.938,56.5899 c 5.098,11.1248 7.07,12.5508 13.25,12.5508 h 0.019 v 4.891 h -26.55" /><path
         id="path60"
         style="fill:#c4122e;fill-opacity:1;fill-rule:nonzero;stroke:none"
         d="m 251.941,412.148 c -10.898,0 -19.238,-7.488 -22.468,-16.003 h -0.344 v 12.957 h -34.891 v -4.754 h 11.746 v -65.489 h -11.746 v -4.66 h 50.887 v 4.66 h -15.652 v 36.668 c 0,10.95 2.871,22.149 10.066,28.332 0.422,0.293 0.977,0.391 1.465,0.137 0.566,-0.273 0.832,-0.859 0.773,-1.445 l 0.008,-0.02 c -0.469,-1.328 -0.84,-2.922 -0.906,-4.855 -0.234,-6.172 4.93,-11.055 11.57,-11.055 8.164,0 12.93,5.957 12.93,12.422 0,8.176 -5.438,13.105 -13.438,13.105" /><path
         id="path62"
         style="fill:#c4122e;fill-opacity:1;fill-rule:nonzero;stroke:none"
         d="m 488.379,386.438 c 0,-19.786 -4.59,-20.442 -10.715,-20.442 -6.816,0 -10.391,1.309 -10.391,20.949 0,13.789 1.536,19.657 10.391,19.657 7.988,0 10.547,-0.528 10.715,-20.106 z m -2.891,-58.145 c 17.02,0 21.543,-0.715 21.543,-11.094 0,-12.422 -15.215,-23.828 -32.402,-23.828 -15.324,0 -22.668,9.395 -23.008,17.559 0,7.488 3.719,12.422 8.32,17.363 z m 22.617,78.309 c 0.34,0.089 0.762,0.285 1.024,0.011 0.254,-0.254 0.254,-0.586 0.059,-0.918 l -0.008,-0.031 c -1.035,-1.738 -1.426,-3.906 -0.625,-6.25 0.789,-2.293 2.773,-4.101 5.136,-4.637 4.872,-1.105 9.11,2.489 9.11,7.137 0,3.008 -1.875,5.285 -4.024,6.633 -2.148,1.355 -4.714,1.98 -7.488,1.98 -4.531,0 -9.172,-2.429 -12.5,-5.332 -0.012,0.012 -0.019,0.02 -0.019,0.02 -0.762,0.558 -1.575,1.086 -2.422,1.582 -4.688,2.726 -10.793,4.551 -18.86,4.551 -14.297,0 -29.617,-9.364 -29.617,-24.852 0,-9.355 5.117,-16.68 14.129,-20.762 v -0.343 c -6.641,-0.848 -17.02,-5.438 -17.02,-19.571 0,-8.504 3.915,-14.968 11.075,-17.019 v -0.332 c -6.817,-1.875 -14.649,-8.684 -14.649,-16.856 0,-12.597 14.805,-22.297 33.699,-22.297 23.665,0 39.153,15.997 39.153,36.758 0,16.516 -8.176,23.996 -24.856,23.664 h -28.25 c -4.257,0 -7.089,0.164 -7.089,4.766 0,4.246 6.523,8.848 12.988,8.848 1.133,0 2.976,-0.86 3.457,-1.016 2.051,-0.676 4.265,-1.027 6.98,-1.027 14.641,0 30.293,8.339 30.293,24.511 0,5 -2.168,11.836 -6.218,16.086 -0.235,0.254 -0.227,0.653 0.046,0.867 1.641,1.301 3.547,2.403 4.434,2.903 0.742,0.41 1.309,0.703 2.012,0.906 l 0.05,0.02" /><path
         id="path64"
         style="fill:#c4122e;fill-opacity:1;fill-rule:nonzero;stroke:none"
         d="m 466.453,120.012 c -10.898,0 -19.238,-7.492 -22.469,-16.008 h -0.343 v 12.961 H 408.75 v -4.766 h 11.746 V 46.7188 H 408.75 v -4.6563 h 50.887 v 4.6563 h -15.653 v 36.6601 c 0,10.9375 2.86,22.1411 10.047,28.3201 0.422,0.293 0.969,0.379 1.457,0.137 0.555,-0.281 0.828,-0.867 0.762,-1.453 l 0.027,-0.051 c -0.457,-1.316 -0.82,-2.891 -0.886,-4.793 -0.235,-6.1835 4.929,-11.0663 11.57,-11.0663 8.164,0 12.93,5.9573 12.93,12.4333 0,8.164 -5.438,13.106 -13.438,13.106" /></g></g></svg>